<svg xmlns="http://www.w3.org/2000/svg" viewBox="0 0 64 64" role="img" aria-label="GapSnap">
  <defs>
    <linearGradient id="gs-bg" x1="12" y1="8" x2="52" y2="56" gradientUnits="userSpaceOnUse">
      <stop stop-color="#7c3aed"/>
      <stop offset="1" stop-color="#6d28d9"/>
    </linearGradient>
  </defs>
  <!-- Rounded tile -->
  <rect x="4" y="4" width="56" height="56" rx="14" fill="url(#gs-bg)"/>
  <!-- Soft inner highlight -->
  <rect x="4" y="4" width="56" height="28" rx="14" fill="#ffffff" opacity=".08"/>

  <!-- Stylized G -->
  <path
    fill="#ffffff"
    d="M33.2 18.2c-7.6 0-13.4 5.5-13.4 13.8 0 8.4 5.8 13.8 13.4 13.8 4.6 0 8.4-1.8 10.8-5.1l-3.6-3.1c-1.6 2.1-4 3.3-7.1 3.3-5 0-8.5-3.5-8.5-8.9s3.5-8.9 8.5-8.9c2.9 0 5.2 1.1 6.7 3l3.5-3.2c-2.3-3-6-4.7-10.3-4.7z"
  />
  <!-- Snap / gap accent (gold) -->
  <path
    fill="#fbbf24"
    d="M35.6 30.2h10.8c.9 0 1.4 1 0.9 1.7l-3.4 4.6c-.3.4-.8.6-1.3.6H35.6c-.7 0-1.2-.6-1.1-1.3l.6-4.3c.1-.7.7-1.3 1.5-1.3z"
  />
  <path
    fill="#f59e0b"
    d="M44.8 31.4l-2.6 3.5h3.4c.4 0 .6-.5.4-.8l-1.2-2.7z"
    opacity=".85"
  />
</svg>
